<?xml version="1.0" standalone="no"?><!DOCTYPE svg PUBLIC "-//W3C//DTD SVG 1.1//EN" "http://www.w3.org/Graphics/SVG/1.1/DTD/svg11.dtd"><svg t="1598501585869" class="icon" viewBox="0 0 1024 1024" version="1.1" xmlns="http://www.w3.org/2000/svg" p-id="44944" xmlns:xlink="http://www.w3.org/1999/xlink" width="16" height="16"><defs><style type="text/css"></style></defs><path d="M951.7 262c-4.8-3.3-10.9-4-16.3-1.9-0.9 0.3-89.2 34-207.4 34-72.7 0-137.5-22.5-200.1-44.3-61.8-21.5-125.7-43.7-196-43.7-100.9 0-252.1 51.6-258.5 53.8-7.1 2.4-11.9 9.1-11.9 16.6v475.3c0 5.7 2.8 11 7.4 14.3 4.7 3.3 10.6 4.2 16 2.3 1.5-0.5 151.5-51.8 245.7-51.8 64.4 0 122.9 20.3 184.8 41.7 65.7 22.8 133.7 46.3 212.6 46.3 124.7 0 216.3-34.9 220.1-36.4 6.8-2.6 11.2-9.1 11.2-16.4V276.5c0-5.8-2.8-11.2-7.6-14.5z m-855 27.3c11.6-3.7 30.8-9.7 54.2-16.2 2 5.8 3.3 11.9 3.3 18.4 0 32-25.7 57.9-57.5 58.6v-60.8z m0 438.2v-73.9c4.5-1.2 9.1-2 14-2 31.2 0 56.5 24.5 58.4 55.2-29.3 7.6-55 15.2-72.4 20.7z m827.4 11.7c-12.7 4.1-35.9 10.9-66 16.9-2.7-6.6-4.6-13.6-4.6-21.2 0-32.4 26.3-58.7 58.7-58.7 4.1 0 8.1 0.6 11.9 1.4v61.6z m0-97c-3.9-0.6-7.9-1.2-11.9-1.2-51.8 0-93.9 42.1-93.9 93.9 0 9.6 2 18.6 4.7 27.3-28.1 4.1-60.2 7-95 7-73 0-138.1-22.6-201-44.3-62-21.5-126.1-43.7-196.4-43.7-38.6 0-84.7 7.7-127.1 17.2-5.9-46.2-45-82.1-92.7-82.1-4.8 0-9.4 0.7-14 1.4V385.2c51.2-0.7 92.7-42.4 92.7-93.8 0-9.6-2-18.6-4.8-27.3 47.5-11.9 103.3-22.9 147.2-22.9 64.4 0 122.7 20.3 184.5 41.8 65.4 22.7 133.1 46.3 211.7 46.3 31.1 0 59.9-2.2 86-5.5 2.3 49.8 43.2 89.7 93.5 89.7 5.7 0 11.3-0.6 16.6-1.7v230.4z m0-266.4c-5.3 1.6-10.9 2.5-16.6 2.5-32.4 0-58.7-26.3-58.7-58.7 0-0.3 0.1-0.6 0.1-1 32.1-5.7 58-12.5 75.3-17.7v74.9z m-401.8-23.2c-86.5-18.2-156.8 34.2-156.8 116.9 0 82.6 70.4 164.7 156.8 182.8 86.5 18.2 156.8-34.2 156.8-116.9 0-82.6-70.4-164.7-156.8-182.8z m0 266c-67.1-14.1-121.6-77.7-121.6-141.8 0-64.1 54.6-104.7 121.6-90.6 67.1 14.1 121.6 77.7 121.6 141.8 0 64.1-54.6 104.7-121.6 90.6z m13.3-124.1v-43.4c10.8 4.3 20.6 10.9 28.5 20.4l10.9-9.8c-9.9-11.5-23-20.4-39.4-25.8v-18.5l-9.5-1.9v0.2l-8.3-1.7v17.6c-26.1-3.6-44.3 7.1-44.3 27.5 0 24.4 22.1 35.6 44.3 45.7v48.1c-17.2-5.3-29.7-15.8-38-26.4l-10.9 10.4c10.9 13.5 26.9 25.1 48.9 30.8v17.8l14.3 2.9v-0.1l3.5 0.7v-18c31 3.1 42.6-12.2 42.6-29.4 0-24.6-21.3-37.1-42.6-47.1z m-17.8-7.7c-14.8-7-25.6-14-25.6-24.9 0-11.5 10.1-17.7 25.6-15.5v40.4z m17.8 69.4v-43.6c13.6 6.8 23.9 14.4 23.9 26.3 0 8.9-6.1 18.1-23.9 17.3z" p-id="44945"></path></svg>