<?xml version="1.0" standalone="no"?><!DOCTYPE svg PUBLIC "-//W3C//DTD SVG 1.1//EN" "http://www.w3.org/Graphics/SVG/1.1/DTD/svg11.dtd"><svg t="1598501347670" class="icon" viewBox="0 0 1024 1024" version="1.1" xmlns="http://www.w3.org/2000/svg" p-id="39229" xmlns:xlink="http://www.w3.org/1999/xlink" width="16" height="16"><defs><style type="text/css"></style></defs><path d="M238 183.2a45.92 45.92 0 0 0-45.856 46.272v557.104c0 33.024 27.136 59.968 61.76 60.8 35.216 0.848 64.832-27.968 64.832-60.8a19.2 19.2 0 1 1 38.4 0c0 33.44 27.456 60.8 61.312 60.8 33.84 0 61.28-27.36 61.28-60.8a19.2 19.2 0 1 1 38.4 0c0 17.04 7.456 35.296 19.088 47.824 11.488 12.368 24.672 17.008 37.248 13.632 4.208-1.136 5.44-1.808 7.008-2.768 1.04-0.64 2.128-1.36 3.872-2.528l1.264-0.848c2.4-1.6 5.376-3.568 9.312-5.984a19.2 19.2 0 0 1 20.16 32.688c-3.392 2.08-5.968 3.776-8.16 5.232l-0.992 0.672c-1.76 1.184-3.632 2.448-5.424 3.52-5.184 3.2-9.92 5.168-17.072 7.104-30.24 8.128-57.28-5.136-75.36-24.608a106.432 106.432 0 0 1-11.072-14.192 99.84 99.84 0 0 1-79.552 39.456 99.856 99.856 0 0 1-80.912-41.28c-19.232 25.616-50.56 42.08-84.56 41.28-53.984-1.312-99.232-43.872-99.232-99.2V229.472c0-46.592 37.312-84.672 84.256-84.672h524.48a84.688 84.688 0 0 1 84.72 84.672v252.256a19.2 19.2 0 0 1-38.4 0V229.472a46.288 46.288 0 0 0-46.304-46.272H238z m58.256 141.376a19.2 19.2 0 0 1 19.2-19.2H684a19.2 19.2 0 0 1 0 38.4H315.456a19.2 19.2 0 0 1-19.2-19.2z m0 144a19.2 19.2 0 0 1 19.2-19.2H684a19.2 19.2 0 0 1 0 38.4H315.456a19.2 19.2 0 0 1-19.2-19.2z m350.88 77.44a19.2 19.2 0 0 1 26.592-5.488l94.56 62.128 91.696-61.984a19.2 19.2 0 0 1 21.504 31.808l-93.872 63.456v31.12h118.304a19.2 19.2 0 0 1 0 38.4h-118.288v53.6l118.432 0.944a19.2 19.2 0 0 1-0.304 38.4l-118.128-0.928v55.152a19.2 19.2 0 0 1-38.4 0v-55.312H628a19.2 19.2 0 1 1 0-38.4h121.232v-53.456H628a19.2 19.2 0 1 1 0-38.4h121.232v-30.96l-96.608-63.472a19.2 19.2 0 0 1-5.488-26.592z m-350.336 66.56a19.2 19.2 0 0 1 19.2-19.2H544a19.2 19.2 0 0 1 0 38.4H316a19.2 19.2 0 0 1-19.2-19.2z" p-id="39230"></path></svg>