<?xml version="1.0" standalone="no"?><!DOCTYPE svg PUBLIC "-//W3C//DTD SVG 1.1//EN" "http://www.w3.org/Graphics/SVG/1.1/DTD/svg11.dtd"><svg t="1598500056860" class="icon" viewBox="0 0 1024 1024" version="1.1" xmlns="http://www.w3.org/2000/svg" p-id="26726" xmlns:xlink="http://www.w3.org/1999/xlink" width="16" height="16"><defs><style type="text/css"></style></defs><path d="M486.4 473.9c4.6 3.8 10.3 5.7 15.9 5.7s11.3-1.9 15.9-5.7c5-4.1 122.3-101.3 154.8-162.3 20.3-38.1 23.5-82.3 8.5-118.4-13.1-31.4-38.7-54.3-72.2-64.5-32.8-9.9-65.3-5.9-93.9 11.6-4.9 3-9.3 6.2-13.1 9.3-3.9-3.1-8.2-6.3-13.1-9.3-28.6-17.5-61-21.6-93.9-11.6-33.5 10.1-59.1 33-72.2 64.5-15 36.1-11.8 80.3 8.5 118.4 32.5 60.9 149.9 158.2 154.8 162.3zM369.3 212.3c7.3-17.6 21.3-30 40.5-35.8 7-2.1 13.8-3.2 20.4-3.2 11 0 21.6 2.9 31.5 8.7 12.4 7.2 19.6 16.5 20.4 17.4 4.6 6.7 12.1 10.5 20.2 10.6h0.2c8.1 0 15.5-4.1 20.2-10.7 0.3-0.4 26.8-36.6 72.2-22.9 19.2 5.8 33.2 18.2 40.5 35.8 9.3 22.4 6.9 50.7-6.4 75.7-20 37.4-87.9 100.4-126.6 133.8-38.7-33.4-106.7-96.4-126.6-133.8-13.4-24.9-15.8-53.2-6.5-75.6z" p-id="26727"></path><path d="M953.3 314.1c-1-22.6-14.4-47.7-41.4-49.3-33.3-1.9-54.4 36.5-56.6 40.9-0.8 1.6-1.5 3.3-1.8 5.1l-41.1 195.9-43.7 29.8 15.3-30.3c10-19.8 6-43.5-10-59-9-8.7-20.8-13.2-33.3-12.8-12.5 0.4-24 5.7-32.3 15L525.2 651.8c-5.7 6.3-10.5 13.4-14.3 21-3.8-7.6-8.6-14.7-14.3-21L313.4 449.6c-8.4-9.3-19.9-14.6-32.3-15-12.5-0.4-24.3 4.1-33.3 12.8-16 15.4-20 39.1-10 59l15.3 30.3-43.7-29.8L168.3 311c-0.4-1.8-1-3.5-1.8-5.1-2.3-4.4-23.3-42.9-56.6-40.9-27.1 1.6-40.5 26.7-41.4 49.3-0.1 1.4 0 2.9 0.3 4.3l43.7 249.2c2.6 15.1 10.5 28.9 22.2 38.8L335.2 777c3.1 2.6 4.9 6.5 4.9 10.5v46.9c0 26.5 21.5 48 48 48h93.5c10.8 0 21.3-3.9 29.4-10.9 8.1 7 18.6 10.9 29.4 10.9h93.5c26.5 0 48-21.5 48-48v-46.9c0-4.1 1.8-7.9 4.9-10.5l200.5-170.4c11.7-9.9 19.6-23.7 22.2-38.8l43.7-249.2c0.1-1.6 0.2-3 0.1-4.5zM485.1 840.7c-0.7 0.7-1.9 1.6-3.7 1.6H388c-4.4 0-8-3.6-8-8v-46.9c0-15.8-6.9-30.8-19-41L160.5 575.9c-4.6-3.9-7.7-9.3-8.7-15.2l-43.2-246.5c0.5-3.5 2.1-8.2 3.4-9.4h0.2c3.7-0.2 12.3 8.4 17.6 17.3l42.1 200.8c1.1 5.1 4 9.5 8.3 12.4l114.4 78c7.5 5.1 17.6 4.5 24.5-1.5 6.9-6 8.8-15.9 4.7-24.1l-50.3-99.5c-2.1-4.1-1.2-9 2.1-12.2 1.4-1.4 3-1.6 4.1-1.6 1.1 0 2.7 0.4 4 1.9l183.1 202.2c8.4 9.3 13.3 21.3 13.9 33.8l5.7 124.6c0.2 1.9-0.6 3.1-1.3 3.8z m384.9-280c-1 5.9-4.1 11.3-8.7 15.2L660.7 746.3c-12.1 10.2-19 25.2-19 41v46.9c0 4.4-3.6 8-8 8h-93.5c-1.8 0-3-0.9-3.7-1.6-0.7-0.7-1.5-2-1.4-3.8l5.7-124.6c0.6-12.5 5.5-24.5 13.9-33.8l183.3-202c1.3-1.5 2.9-1.8 4-1.9h0.2c1.1 0 2.6 0.3 3.9 1.6 3.3 3.2 4.1 8.1 2.1 12.2L698 587.8c-4.1 8.1-2.2 18 4.7 24.1 6.9 6 16.9 6.6 24.5 1.5l114.4-78c4.3-2.9 7.2-7.4 8.3-12.4L892 322c5.1-8.6 13.7-17.3 17.5-17.3H909.8c1.2 1.1 2.8 5.3 3.4 9.4L870 560.7z" p-id="26728"></path></svg>