<?xml version="1.0" standalone="no"?><!DOCTYPE svg PUBLIC "-//W3C//DTD SVG 1.1//EN" "http://www.w3.org/Graphics/SVG/1.1/DTD/svg11.dtd"><svg t="1598498282891" class="icon" viewBox="0 0 1024 1024" version="1.1" xmlns="http://www.w3.org/2000/svg" p-id="14147" xmlns:xlink="http://www.w3.org/1999/xlink" width="16" height="16"><defs><style type="text/css"></style></defs><path d="M938.666667 256l-162.133333 0c17.066667-36.266667 17.066667-76.8-2.133333-113.066667-36.266667-61.866667-121.6-76.8-194.133333-36.266667C552.533333 123.733333 533.333333 145.066667 518.4 170.666667c0 0-2.133333 0-2.133333 0 0 0 0 0-2.133333 0-2.133333 0-2.133333 0-4.266667 0 0 0-2.133333 0-2.133333 0 0 0-2.133333 0-2.133333 0 0 0-2.133333 0-2.133333 0C490.666667 145.066667 469.333333 123.733333 443.733333 108.8c-70.4-40.533333-157.866667-25.6-194.133333 36.266667-19.2 34.133333-19.2 74.666667-2.133333 113.066667L85.333333 258.133333c-23.466667 0-42.666667 19.2-42.666667 42.666667l0 85.333333c0 23.466667 19.2 42.666667 42.666667 42.666667l0 213.333333 0 42.666667 0 213.333333c0 23.466667 19.2 42.666667 42.666667 42.666667l768 0c23.466667 0 42.666667-19.2 42.666667-42.666667L938.666667 682.666667l0-42.666667L938.666667 426.666667c23.466667 0 42.666667-19.2 42.666667-42.666667l0-85.333333C981.333333 275.2 962.133333 256 938.666667 256zM285.866667 166.4c23.466667-40.533333 83.2-49.066667 134.4-21.333333 32 19.2 53.333333 49.066667 57.6 78.933333-4.266667 10.666667-8.533333 21.333333-12.8 32L405.333333 256l-108.8 0C275.2 228.266667 270.933333 192 285.866667 166.4zM85.333333 384l0-85.333333 360.533333 0c-17.066667 32-36.266667 61.866667-55.466667 85.333333L85.333333 384zM490.666667 896 128 896 128 682.666667l362.666667 0L490.666667 896zM490.666667 640 128 640 128 426.666667l228.266667 0c-27.733333 32-49.066667 49.066667-49.066667 49.066667-8.533333 8.533333-10.666667 21.333333-2.133333 29.866667 2.133333 4.266667 6.4 6.4 10.666667 6.4 6.4 2.133333 12.8 0 19.2-4.266667 2.133333-2.133333 38.4-32 78.933333-81.066667L490.666667 426.666667 490.666667 640zM490.666667 384l-46.933333 0c17.066667-23.466667 32-51.2 46.933333-78.933333L490.666667 384zM601.6 145.066667c51.2-29.866667 110.933333-19.2 134.4 21.333333C753.066667 192 746.666667 228.266667 727.466667 256L618.666667 256l-61.866667 0c-4.266667-10.666667-8.533333-21.333333-12.8-32C548.266667 194.133333 569.6 164.266667 601.6 145.066667zM533.333333 305.066667c14.933333 29.866667 29.866667 55.466667 46.933333 78.933333L533.333333 384 533.333333 305.066667zM896 896 533.333333 896 533.333333 682.666667l362.666667 0L896 896zM896 640 533.333333 640 533.333333 426.666667l78.933333 0c40.533333 51.2 74.666667 78.933333 78.933333 81.066667 6.4 4.266667 12.8 6.4 19.2 4.266667 4.266667-2.133333 8.533333-4.266667 10.666667-6.4 8.533333-8.533333 6.4-23.466667-2.133333-29.866667 0 0-21.333333-17.066667-49.066667-49.066667L896 426.666667 896 640zM938.666667 384 633.6 384c-19.2-23.466667-38.4-53.333333-55.466667-85.333333L938.666667 298.666667 938.666667 384z" p-id="14148"></path></svg>