<?xml version="1.0" standalone="no"?><!DOCTYPE svg PUBLIC "-//W3C//DTD SVG 1.1//EN" "http://www.w3.org/Graphics/SVG/1.1/DTD/svg11.dtd"><svg t="1598499276450" class="icon" viewBox="0 0 1024 1024" version="1.1" xmlns="http://www.w3.org/2000/svg" p-id="20827" xmlns:xlink="http://www.w3.org/1999/xlink" width="16" height="16"><defs><style type="text/css"></style></defs><path d="M478.853 426.301c-11.76-45.542-41.769-74.885-84.69-91.893-4.372-1.73-5.806-3.62-5.796-8.305 0.16-79.4 0.118-158.807 0.108-238.208 0-14.792-7.86-22.671-22.533-22.671H215.28c-16.072 0-23.645 7.577-23.645 23.675 0 79.232-0.035 158.464 0.093 237.696 0.005 4.177-1.152 6.082-5.202 7.623-30.239 11.505-54.707 30.244-71.48 58.317-13.43 22.472-18.54 47.084-18.55 72.965-0.016 65.823-0.005 131.656-0.005 197.484 0 67.865-0.272 135.73 0.122 203.596 0.174 30.086 12.688 54.83 36.398 73.447 20.107 15.78 43.797 20.94 68.721 21.028 58.875 0.2 117.75 0.281 176.62-0.128a145.556 145.556 0 0 0 33.679-4.194c51.185-12.666 71.511-56.207 71.583-89.108 0.297-135.05 0.24-270.106-0.082-405.15a147.42 147.42 0 0 0-4.68-36.174z m-34.53 440.69c0 22.537-14.806 42.229-37.943 49.161-8.5 2.545-17.624 4.122-26.47 4.168-59.73 0.358-119.466 0.22-179.196 0.159-13.399-0.016-26.373-2.376-38.17-9.078-17.33-9.861-26.772-24.899-26.792-44.856-0.159-134.231-0.087-268.457-0.082-402.683 0-47.647 29.558-84.65 76.027-95.237 13.998-3.19 19.333-9.861 19.338-24.249V106.081h118.262v6.518c0 77.384 0.035 154.762-0.046 232.14-0.01 8.736 2.19 16.185 10.112 20.778 2.575 1.49 5.647 2.222 8.565 2.99 35.538 9.354 61.635 29.297 72.315 65.72a97.946 97.946 0 0 1 3.922 27.029c0.24 135.244 0.174 270.49 0.159 405.734z m325.515-305.66c1.173-0.169 2.36-0.24 3.538-0.374 30.218-3.532 58.598-12.395 84.198-29.204 35.943-23.598 60.017-56.914 77.39-95.478 24.478-54.308 34.477-111.754 35.85-170.926 0.358-15.324-7.783-23.101-23.163-23.101H549.094c-1.525 0-3.056-0.005-4.582 0.082-8.422 0.491-15.78 6.077-17.782 14.264-0.988 4.045-1.147 8.397-1.029 12.59a483.676 483.676 0 0 0 9.098 81.761c8.32 41.667 21.453 81.577 44.078 117.878 33.388 53.57 80.989 85.038 144.118 91.991 4.506 0.497 5.883 1.782 5.878 6.385-0.128 115.886-0.102 231.772-0.108 347.653 0 1.792-0.158 3.589-0.26 5.657h-6.626c-37.325 0-74.655-0.04-111.98 0.02-11.699 0.021-20.295 8.715-20.316 20.23-0.02 11.53 8.561 20.332 20.214 20.342 92.298 0.046 184.602 0.056 276.9-0.103 3.543-0.005 7.45-1.162 10.568-2.892 8.018-4.465 11.433-13.85 8.99-22.82-2.406-8.842-10.091-14.746-19.594-14.756-37.494-0.051-74.987-0.02-112.491-0.02h-6.15V561.991c0.881-0.328 1.342-0.594 1.818-0.66z m-24.136-38.768c-32.128-0.38-62.06-8.039-88.647-26.696-23.291-16.348-40.192-38.18-53.381-63.084-18.883-35.655-28.718-74.08-34.32-113.735-1.648-11.725-2.678-23.537-4.06-35.932h365.962c-1.188 11.095-2.12 21.852-3.522 32.542-4.731 36.127-13.148 71.28-28.498 104.505-12.442 26.941-28.693 51.138-52.04 69.97-29.624 23.89-64.056 32.865-101.494 32.43z" p-id="20828"></path><path d="M381.942 508.667c-1.506-7.957-8.126-14.223-16.185-15.606-7.285-1.25-15.723 2.494-19.246 9.564a29.542 29.542 0 0 0-3.04 12.585c-0.21 47.34-0.129 94.68-0.129 142.019V798.75c0 1.53-0.066 3.061 0.046 4.582 0.717 9.58 8.064 17.439 17.296 18.545a19.159 19.159 0 0 0 20.74-13.594c1.004-3.343 1.276-7.02 1.276-10.542 0.066-93.501 0.061-186.987 0.02-280.489a46.822 46.822 0 0 0-0.778-8.586z" p-id="20829"></path></svg>