<?xml version="1.0" standalone="no"?><!DOCTYPE svg PUBLIC "-//W3C//DTD SVG 1.1//EN" "http://www.w3.org/Graphics/SVG/1.1/DTD/svg11.dtd"><svg class="icon" width="16px" height="16.00px" viewBox="0 0 1024 1024" version="1.1" xmlns="http://www.w3.org/2000/svg"><path fill="#000000" d="M108 284a96 96 0 0 1 96-96h616a96 96 0 0 1 96 96V808a96 96 0 0 1-96 96h-616a96 96 0 0 1-96-96V284z m96-32a32 32 0 0 0-32 32V808a32 32 0 0 0 32 32h616a32 32 0 0 0 32-32V284a32 32 0 0 0-32-32h-616zM332 120a32 32 0 0 1 32 32v132a32 32 0 1 1-64 0V152a32 32 0 0 1 32-32z m364 0a32 32 0 0 1 32 32v132a32 32 0 1 1-64 0V152a32 32 0 0 1 32-32zM362.736 386.48a32 32 0 0 1 44.304-9.248l106.432 69.664 103.136-69.44a32 32 0 0 1 35.744 53.088l-106.624 71.792v22.112h130.272a32 32 0 1 1 0 64h-130.272v44.224l130.528 1.024a32 32 0 0 1-0.512 64l-130.016-1.024V752a32 32 0 1 1-64 0v-55.584H348a32 32 0 0 1 0-64h133.728v-43.968H348a32 32 0 1 1 0-64h133.728v-21.84l-109.744-71.84a32 32 0 0 1-9.248-44.288z" /></svg>